<svg width="68" height="80" viewBox="0 0 68 80" fill="none" xmlns="http://www.w3.org/2000/svg">
<path d="M53.6662 34.8797C54.301 35.0091 54.9197 34.5998 55.0496 33.9638C55.3393 32.5441 55.486 31.0832 55.486 29.6213C55.486 17.7376 45.847 8.06934 33.9989 8.06934C22.1508 8.06934 12.5117 17.7376 12.5117 29.6213C12.5117 41.5051 22.1508 51.1733 33.9989 51.1733C42.0746 51.1733 49.3948 46.699 53.1026 39.4965C53.3995 38.9196 53.1742 38.2104 52.5989 37.9126C52.0238 37.6146 51.3167 37.841 51.0198 38.4176C47.716 44.8353 41.194 48.8221 33.999 48.8221C23.4434 48.8221 14.8559 40.2086 14.8559 29.6212C14.8559 19.0337 23.4434 10.4203 33.999 10.4203C44.5546 10.4203 53.1421 19.0337 53.1421 29.6212C53.1421 30.9249 53.0113 32.2273 52.7532 33.4921C52.6233 34.1283 53.0323 34.7495 53.6662 34.8797Z" fill="url(#paint0_linear)"/>
<path d="M47.0401 25.2489C46.9019 24.8224 46.5341 24.512 46.0917 24.4484L38.4532 23.351L35.0521 16.4033C34.6636 15.54 33.3363 15.5401 32.9479 16.4033L29.5469 23.3508L21.9084 24.4483C20.9686 24.5522 20.5603 25.8191 21.2582 26.4553L26.7946 31.8466L25.4748 39.4723C25.2829 40.398 26.3552 41.1828 27.177 40.7129L34 37.0973L40.8229 40.7129C41.6434 41.1828 42.7175 40.398 42.5251 39.4723L41.2053 31.8466L46.7417 26.4553C47.0626 26.1432 47.1782 25.6752 47.0401 25.2489ZM39.1283 30.5925C38.8503 30.8632 38.7237 31.254 38.7898 31.637L39.8073 37.5158L34.5474 34.7284C34.2048 34.5469 33.7949 34.5469 33.4524 34.7284L28.1925 37.5158L29.21 31.637C29.2762 31.254 29.1495 30.8632 28.8715 30.5925L24.6033 26.4362L30.492 25.59C30.8755 25.5348 31.2071 25.2934 31.3779 24.9444L33.9998 19.5886L36.6217 24.9444C36.7925 25.2932 37.1241 25.5348 37.5076 25.59L43.3963 26.4362L39.1283 30.5925Z" fill="url(#paint1_linear)"/>
<path d="M66.8894 69.8767L55.434 49.9753C60.45 44.664 63.5311 37.4969 63.5311 29.6208C63.531 13.2878 50.2832 0 33.9992 0C28.989 0 24.0393 1.28157 19.6849 3.70626C19.1189 4.02145 18.9148 4.73702 19.229 5.30475C19.5431 5.87216 20.2567 6.07688 20.8225 5.76199C24.8298 3.53061 29.3861 2.35124 33.9992 2.35124C48.9907 2.35124 61.1869 14.5845 61.1869 29.621C61.1869 44.6576 48.9907 56.8909 33.9992 56.8909C19.0078 56.8909 6.81149 44.6576 6.81149 29.6208C6.81149 21.5542 10.3443 13.9455 16.5043 8.74613C16.9995 8.3281 17.0631 7.58645 16.6464 7.08982C16.2296 6.59304 15.4903 6.52897 14.995 6.9473C8.30466 12.5944 4.46744 20.8586 4.46744 29.6208C4.46744 37.5103 7.55894 44.6887 12.5901 50.0028L9.34573 55.639C8.56828 56.9439 10.6254 58.1503 11.3757 56.8147L14.325 51.691C17.8534 54.8588 22.1427 57.1894 26.8805 58.37L16.7668 75.9401L14.1798 67.7733C13.9965 67.1943 13.4033 66.8511 12.8116 66.981L4.46666 68.8171L8.64064 61.5657C8.96427 61.0035 8.77222 60.2845 8.21167 59.9599C7.65098 59.6353 6.93432 59.8279 6.61069 60.3901L1.10873 69.9485C0.586788 70.7882 1.41564 71.9291 2.37483 71.6847L12.2694 69.5074L15.3368 79.1908C15.605 80.1434 17.0005 80.2986 17.4688 79.4226L29.3014 58.8657C30.8316 59.1121 32.4003 59.242 33.9987 59.242C35.6104 59.242 37.1915 59.1098 38.7337 58.8595L45.8404 71.2059C46.0575 71.5831 46.4514 71.7938 46.8565 71.7938C47.0553 71.7938 47.2569 71.743 47.4414 71.6361C48.0019 71.3114 48.194 70.5925 47.8704 70.0303L41.1536 58.3611C45.8893 57.1745 50.1757 54.8388 53.7002 51.6666L63.531 68.7454L55.186 66.9092C54.5944 66.7791 54.0013 67.1226 53.8179 67.7015L51.2308 75.8684L50.6051 74.7813C50.2815 74.2191 49.5646 74.0266 49.0041 74.3511C48.4436 74.6759 48.2515 75.3947 48.5751 75.957L50.5287 79.351C50.9972 80.2272 52.3925 80.0717 52.6607 79.1192L55.7281 69.4358L65.6227 71.6131C66.5828 71.8566 67.411 70.7164 66.8894 69.8767Z" fill="url(#paint2_linear)"/>
<defs>
<linearGradient id="paint0_linear" x1="36" y1="44.5002" x2="47.5" y2="16.5002" gradientUnits="userSpaceOnUse">
<stop offset="0.427083" stop-color="#30BFB4" stop-opacity="0.33"/>
<stop offset="0.922742" stop-color="#30BFB4"/>
</linearGradient>
<linearGradient id="paint1_linear" x1="20.9072" y1="28.3026" x2="47.0973" y2="28.3026" gradientUnits="userSpaceOnUse">
<stop offset="0.427083" stop-color="#30BFB4" stop-opacity="0.42"/>
<stop offset="1" stop-color="#30BFB4"/>
</linearGradient>
<linearGradient id="paint2_linear" x1="0.947266" y1="39.9939" x2="67.0503" y2="39.9939" gradientUnits="userSpaceOnUse">
<stop offset="0.427083" stop-color="#30BFB4"/>
<stop offset="1" stop-color="#30BFB4"/>
</linearGradient>
</defs>
</svg>
