<svg width="68" height="68" viewBox="0 0 68 68" fill="none" xmlns="http://www.w3.org/2000/svg">
<path d="M66.0559 9.29668C65.0556 8.29461 63.4325 8.29288 62.4321 9.29243L31.687 39.9565L20.5942 27.9086C19.6357 26.8682 18.0151 26.8007 16.9729 27.7591C15.9315 28.7176 15.8649 30.339 16.8234 31.3804L29.7229 45.3896C30.1953 45.903 30.8565 46.2012 31.5536 46.2156C31.5723 46.2164 31.5904 46.2164 31.6083 46.2164C32.2858 46.2164 32.9375 45.9474 33.4176 45.469L66.0509 12.9213C67.0537 11.9219 67.0555 10.2987 66.0559 9.29668Z" fill="#30BFB4"/>
<path d="M65.4371 31.4371C64.0216 31.4371 62.8744 32.5844 62.8744 34C62.8744 49.922 49.922 62.8744 34 62.8744C18.079 62.8744 5.12563 49.922 5.12563 34C5.12563 18.079 18.079 5.12563 34 5.12563C35.4155 5.12563 36.5629 3.9784 36.5629 2.56288C36.5629 1.14723 35.4155 0 34 0C15.2522 0 0 15.2522 0 34C0 52.747 15.2522 68 34 68C52.747 68 68 52.747 68 34C68 32.5845 66.8528 31.4371 65.4371 31.4371Z" fill="#C4C4C4"/>
</svg>

